<svg xmlns="http://www.w3.org/2000/svg" viewBox="0 0 24 24">
  <!-- Mismo trazado que src/components/brand/tooth-path.ts -->
  <rect width="24" height="24" rx="5" fill="#1e4b45"/>
  <g transform="translate(12 12) scale(0.72) translate(-12 -12)">
    <path d="M12 2.6C9.3 1.5 5.9 1.9 4.5 4.1C3.3 6 3.4 8.6 3.9 11.2C4.4 13.9 5 17.6 5.5 19.9C5.8 21.2 7.6 21.3 8 20C8.6 18 9.2 15 9.6 13.4C9.9 12.2 10.7 11.6 12 11.6C13.3 11.6 14.1 12.2 14.4 13.4C14.8 15 15.4 18 16 20C16.4 21.3 18.2 21.2 18.5 19.9C19 17.6 19.6 13.9 20.1 11.2C20.6 8.6 20.7 6 19.5 4.1C18.1 1.9 14.7 1.5 12 2.6Z" fill="#f4f5f3"/>
  </g>
</svg>
